<svg width="61" height="61" viewBox="0 0 61 61" fill="none" xmlns="http://www.w3.org/2000/svg">
<path d="M61 30.4997C61 47.3452 47.3451 61 30.5 61C13.6549 61 0 47.3452 0 30.4997C0 13.6555 13.6549 0 30.5 0C47.3451 0 61 13.6555 61 30.4997Z" fill="white"/>
<path fill-rule="evenodd" clip-rule="evenodd" d="M51.5288 9.54927C46.1374 4.1782 38.6957 0.847656 30.4999 0.847656H30.4985C22.3035 0.848355 14.8617 4.17819 9.47034 9.54857C4.07684 14.921 0.733688 22.3333 0.733688 30.499V30.4997C0.734387 38.6653 4.07754 46.0783 9.47034 51.45C14.8617 56.8211 22.3042 60.1517 30.4985 60.1517H30.4999H30.5006C38.6957 60.1517 46.1374 56.8211 51.5288 51.4507C56.9223 46.0783 60.2662 38.666 60.2662 30.4997C60.2655 22.3326 56.9223 14.921 51.5288 9.54927ZM59.3885 30.499C59.3885 38.4235 56.1445 45.6178 50.9125 50.8295C45.679 56.0419 38.4567 59.2739 30.4999 59.2739H30.4992H30.4978C22.5411 59.2739 15.3188 56.0419 10.086 50.8288C4.85393 45.6178 1.60931 38.4249 1.60931 30.4997V30.499C1.60931 22.5751 4.85393 15.3809 10.0867 10.1691C15.3195 4.95597 22.5425 1.72397 30.4985 1.72397H30.4999C38.4574 1.72397 45.679 4.95597 50.9125 10.1691C56.1452 15.3809 59.3885 22.5751 59.3885 30.499Z" fill="#1E3D8F"/>
<path fill-rule="evenodd" clip-rule="evenodd" d="M30.4993 9.67578C19.0862 9.67578 9.77789 19.0294 9.77789 30.4983C9.77789 41.9672 19.0869 51.3215 30.4993 51.3215C41.9124 51.3215 51.2235 41.9672 51.2235 30.4983C51.2235 19.0294 41.9124 9.67578 30.4993 9.67578Z" fill="#1E3D8F"/>
<path fill-rule="evenodd" clip-rule="evenodd" d="M31.0206 40.9062L31.8327 43.4031H34.4574L32.3344 44.9454L33.145 47.4422L31.0206 45.8993L28.8976 47.4422L29.709 44.9454L27.5859 43.4031H30.2107L31.0206 40.9062Z" fill="white"/>
<path fill-rule="evenodd" clip-rule="evenodd" d="M42.2045 23.5391L43.0151 26.0345H45.6413L43.5169 27.5782L44.3282 30.0751L42.2045 28.5314L40.0808 30.0751L40.8921 27.5782L38.7684 26.0345H41.3939L42.2045 23.5391Z" fill="white"/>
<path fill-rule="evenodd" clip-rule="evenodd" d="M33.8996 28.5156L34.502 30.3731H36.4566L34.8766 31.5212L35.4803 33.3794L33.8996 32.2312L32.3189 33.3794L32.9227 31.5212L31.3426 30.3731H33.2958L33.8996 28.5156Z" fill="white"/>
<path fill-rule="evenodd" clip-rule="evenodd" d="M30.5083 13.1797L31.3204 15.6758H33.9451L31.8221 17.2188L32.6327 19.7157L30.5083 18.1734L28.3853 19.7157L29.1966 17.2188L27.0729 15.6758H29.6977L30.5083 13.1797Z" fill="white"/>
<path fill-rule="evenodd" clip-rule="evenodd" d="M19.1225 23.3281L19.9338 25.8243H22.5593L20.4348 27.3673L21.2469 29.8627L19.1225 28.3211L16.998 29.8627L17.8101 27.3673L15.6864 25.8243H18.3118L19.1225 23.3281Z" fill="white"/>
<path d="M9.97766 15.4186C9.78618 15.3291 9.16983 15.1083 8.76171 15.7156C8.30049 16.4032 8.81972 17.0706 9.46053 17.501C10.1007 17.9315 10.9169 18.1586 11.3781 17.471C11.7093 16.9776 11.492 16.5513 11.1035 16.1642L12.0713 14.7226C13.0322 15.3676 13.5284 16.8344 12.5926 18.2285C11.557 19.7701 9.88192 19.914 8.4745 18.9685C6.97273 17.9608 6.61494 16.3452 7.60097 14.877C8.48568 13.5737 9.6569 13.3145 10.9378 13.9902L9.97766 15.4186Z" fill="#1E3D8F"/>
<path d="M11.3265 10.4908L13.9506 8.3804C14.7326 7.75077 15.757 7.63826 16.437 8.48382C16.8102 8.94643 16.9898 9.60681 16.6683 10.1435C17.1596 9.98487 17.7242 10.212 18.2232 10.7291C18.4174 10.9332 18.8521 11.4601 19.1442 11.5663L17.7661 12.6739C17.5167 12.5041 17.3049 12.2923 17.0988 12.0764C16.7186 11.6809 16.3238 11.2665 15.7801 11.7046L15.0463 12.2944L16.3014 13.8528L14.9233 14.9618L11.3265 10.4908ZM14.2762 11.3371L14.996 10.7578C15.2532 10.5502 15.5683 10.2253 15.2462 9.82484C15.0191 9.54252 14.7319 9.50618 14.2056 9.92896L13.5606 10.4475L14.2762 11.3371Z" fill="#1E3D8F"/>
<path d="M24.2692 7.02953C24.8478 8.51241 24.3244 9.53547 22.6913 10.1728C21.0588 10.8101 19.9729 10.4139 19.3949 8.931L18.1161 5.65077L19.7625 5.00926L20.8988 7.92191C21.1112 8.46838 21.3782 9.15042 22.179 8.83735C22.9589 8.53337 22.692 7.85203 22.4795 7.30556L21.3418 4.39291L22.9897 3.75L24.2692 7.02953Z" fill="#1E3D8F"/>
<path d="M26.2573 7.43906L28.7087 4.36709L26.1986 4.55017L26.0924 3.08337L30.9261 2.73047L31.0197 4.01279L28.5508 7.1826L31.3643 6.97715L31.4712 8.44325L26.3565 8.81642L26.2573 7.43906Z" fill="#1E3D8F"/>
<path d="M34.008 2.95312L38.6502 3.96291L38.3372 5.40036L35.4238 4.76654L35.2715 5.46605L37.9186 6.04118L37.6279 7.3766L34.9807 6.80148L34.8284 7.50029L37.8298 8.15298L37.5161 9.59044L32.7879 8.56249L34.008 2.95312Z" fill="#1E3D8F"/>
<path d="M41.3113 5.03906L42.9123 5.78889L40.4783 10.9874L38.8766 10.2375L41.3113 5.03906Z" fill="#1E3D8F"/>
<path d="M45.4666 7.14844L48.1152 9.2274C48.9055 9.84725 49.2459 10.8193 48.5764 11.6732C48.2088 12.1408 47.6071 12.465 47.0117 12.2735C47.2766 12.7173 47.1829 13.3169 46.7923 13.9192C46.6372 14.1561 46.2221 14.6977 46.185 15.0059L44.7937 13.9136C44.9027 13.6313 45.0606 13.3776 45.2255 13.1289C45.5253 12.6691 45.8391 12.1911 45.2898 11.7585L44.5498 11.1785L43.3143 12.7529L41.9236 11.66L45.4666 7.14844ZM45.3094 10.212L46.0362 10.7823C46.2961 10.9856 46.6833 11.2197 47.0013 10.8151C47.2256 10.53 47.1962 10.2421 46.6644 9.82489L46.0131 9.31406L45.3094 10.212Z" fill="#1E3D8F"/>
<path d="M53.3981 14.8795C54.3778 16.3219 53.9956 17.9899 52.5462 18.9753C51.0969 19.9599 49.405 19.7006 48.4253 18.2576C47.4448 16.8145 47.8278 15.1472 49.2771 14.1618C50.7265 13.1779 52.4177 13.4379 53.3981 14.8795ZM49.6084 17.4539C49.8614 17.8257 50.4959 18.2303 51.5525 17.5119C52.6098 16.7943 52.4666 16.0549 52.2143 15.6832C51.9613 15.3114 51.3282 14.9068 50.2702 15.6245C49.2129 16.3428 49.3561 17.0815 49.6084 17.4539Z" fill="#1E3D8F"/>
<path d="M52.5274 31.1901L52.1703 26.4528L53.6378 26.3424L53.8614 29.3159L54.5749 29.2627L54.3715 26.5611L55.7342 26.4584L55.9376 29.16L56.6504 29.1062L56.4198 26.0447L57.8873 25.9336L58.2507 30.7589L52.5274 31.1901Z" fill="#1E3D8F"/>
<path d="M51.3932 37.5976L52.0536 34.5242C52.3708 33.0476 53.2716 32.912 53.8447 33.035C54.41 33.1566 54.6581 33.4976 54.7971 33.963C55.0774 33.4969 55.5798 33.1119 56.4051 33.2894C57.5281 33.5305 57.9006 34.6304 57.6889 35.6206L57.0033 38.803L51.3932 37.5976ZM53.9488 36.3376L54.1458 35.4257C54.2227 35.0637 54.1703 34.8149 53.809 34.7373C53.526 34.6765 53.3736 34.8897 53.2968 35.244L53.1004 36.1559L53.9488 36.3376ZM56.0403 36.7869L56.2577 35.7737C56.3359 35.4124 56.3003 35.0755 55.8684 34.9826C55.5379 34.912 55.3157 35.07 55.2276 35.4788L54.9949 36.5626L56.0403 36.7869Z" fill="#1E3D8F"/>
<path d="M53.96 40.6892C55.3493 41.4677 55.5945 42.5914 54.7371 44.1204C53.8796 45.6487 52.7895 46.0331 51.4009 45.2546L48.3289 43.5327L49.1934 41.9904L51.9223 43.5194C52.4338 43.8066 53.0725 44.1637 53.4925 43.4139C53.9006 42.6843 53.2633 42.3265 52.7518 42.04L50.0229 40.511L50.8873 38.9688L53.96 40.6892Z" fill="#1E3D8F"/>
<path d="M44.4518 47.5769L45.7041 46.3281L48.716 49.3519L50.5154 47.558L51.5532 48.6L48.5021 51.6405L44.4518 47.5769Z" fill="#1E3D8F"/>
<path d="M42.9765 51.1574C42.8472 50.9904 42.3986 50.5131 41.7585 50.8674C41.0345 51.2685 41.1924 52.1001 41.5663 52.7745C41.9401 53.4495 42.5621 54.0239 43.2854 53.6228C43.806 53.3335 43.8074 52.8555 43.6376 52.3342L45.1554 51.4921C45.7166 52.504 45.4908 54.0358 44.0212 54.8506C42.3979 55.7507 40.8416 55.1155 40.0198 53.6326C39.1428 52.0512 39.5607 50.4502 41.1065 49.5935C42.488 48.8367 43.6481 49.1399 44.479 50.3237L42.9765 51.1574Z" fill="#1E3D8F"/>
<path d="M29.4789 52.6156L34.2197 52.3242L34.3105 53.7917L31.3335 53.9755L31.379 54.6897L34.082 54.5227L34.1665 55.8868L31.4628 56.0531L31.5061 56.7666L34.5712 56.5786L34.6613 58.0468L29.8318 58.3438L29.4789 52.6156Z" fill="#1E3D8F"/>
<path d="M24.6556 53.2546L23.0854 52.9094L23.3999 51.4727L28.2685 52.5411L27.9541 53.9786L26.3831 53.6341L25.4684 57.8032L23.7402 57.4244L24.6556 53.2546Z" fill="#1E3D8F"/>
<path d="M17.8329 48.6211L20.7854 50.2409C21.6666 50.7231 22.1614 51.6274 21.6393 52.5792C21.3528 53.0998 20.8119 53.5191 20.1935 53.4268C20.5282 53.821 20.5331 54.4289 20.2452 55.0872C20.132 55.3451 19.8098 55.9481 19.8231 56.2577L18.2731 55.408C18.3346 55.1117 18.4492 54.8363 18.5701 54.5631C18.7916 54.0606 19.023 53.5365 18.4101 53.2011L17.5855 52.7483L16.6232 54.5037L15.0725 53.6539L17.8329 48.6211ZM18.1767 51.67L18.9873 52.1145C19.2759 52.2731 19.698 52.4401 19.9454 51.988C20.1194 51.6721 20.0432 51.3912 19.452 51.0676L18.726 50.67L18.1767 51.67Z" fill="#1E3D8F"/>
<path d="M14.8373 45.674C16.0449 46.9326 15.9477 48.6412 14.6843 49.8543C13.4201 51.0681 11.7087 51.0954 10.5004 49.8375C9.29287 48.5783 9.39001 46.8697 10.6535 45.6558C11.9183 44.4434 13.6291 44.4154 14.8373 45.674ZM11.5319 48.8473C11.8436 49.1716 12.5368 49.4644 13.4585 48.579C14.3817 47.695 14.1175 46.9899 13.8059 46.6656C13.4935 46.3414 12.8003 46.0479 11.8785 46.9333C10.9561 47.8173 11.2209 48.5224 11.5319 48.8473Z" fill="#1E3D8F"/>
<path d="M9.88118 38.3164L11.2166 40.9551C11.9196 42.3458 11.1495 43.3486 10.4179 43.7182C9.17747 44.3465 8.17606 43.8091 7.58067 42.633L7.10826 41.7015L5.55968 42.4848L4.76163 40.9083L9.88118 38.3164ZM8.32701 41.0844L8.63519 41.6931C8.84204 42.1019 9.08942 42.5177 9.60515 42.2563C10.0706 42.0201 9.91822 41.6483 9.72255 41.2605L9.36685 40.5575L8.32701 41.0844Z" fill="#1E3D8F"/>
<path d="M5.09928 34.6585C4.95742 34.6858 4.83582 34.7347 4.74078 34.7941C4.42631 34.9863 4.42911 35.379 4.4927 35.7025C4.54791 35.987 4.72751 36.4021 5.1447 36.3196C5.43681 36.263 5.46825 36.0037 5.55491 34.9786C5.63318 34.038 5.6793 32.9723 6.81558 32.7508C8.11818 32.4964 8.89457 33.4992 9.12169 34.6592C9.36068 35.8821 9.10562 37.0541 7.74222 37.3692L7.42216 35.7284C7.64159 35.7186 7.76458 35.5963 7.83236 35.4356C7.90714 35.2735 7.90714 35.0687 7.87359 34.8947C7.82747 34.6578 7.68841 34.2833 7.37254 34.3448C6.97631 34.4552 7.04689 35.2777 6.9812 36.1169C6.91621 36.9569 6.69958 37.8186 5.66532 38.0198C4.1978 38.307 3.46124 37.0499 3.21596 35.7955C3.09157 35.1561 2.96438 33.2895 4.75965 32.922L5.09928 34.6585Z" fill="#1E3D8F"/>
<path d="M8.85109 26.3415L8.46814 31.0767L7.00202 30.9579L7.24241 27.9851L6.52822 27.9278L6.31019 30.628L4.94819 30.5183L5.16692 27.8174L4.45342 27.7601L4.20604 30.8209L2.74062 30.7021L3.12986 25.8789L8.85109 26.3415Z" fill="#1E3D8F"/>
</svg>
